@startuml

package "Control" #lightblue {
  interface CLI
  interface Web
  interface REST
  folder bin #ffffff {
    component control as bc
    component "edgeville-agent" as bea
    component "edgeville-manager" as bem
  }

  folder app #ffffff {
    component sails.io
    component sailsjs
  }

  folder uService #ffffff {
    component control as sc
    component "edgeville-agent" as sea
    component "edgeville-manager" as sem
  }
}

CLI -- bc
CLI -- bea
CLI -- bem
bea --  REST
bem --  REST
bc --  REST

Web -- sailsjs
Web -- REST
REST -- sailsjs
Web -- sails.io
REST -- sc
REST -- sea
REST -- sem

@enduml
